<svg width="19" height="19" viewBox="0 0 19 19" fill="none" xmlns="http://www.w3.org/2000/svg">
<path d="M3.80771 7.88453L8.61536 0L13.423 7.88453H3.80771ZM14.1154 18.8845C12.9679 18.8845 11.9952 18.4855 11.1971 17.6874C10.399 16.8894 10 15.9166 10 14.7692C10 13.6217 10.399 12.649 11.1971 11.8509C11.9952 11.0529 12.9679 10.6538 14.1154 10.6538C15.2628 10.6538 16.2355 11.0529 17.0336 11.8509C17.8317 12.649 18.2307 13.6217 18.2307 14.7692C18.2307 15.9166 17.8317 16.8894 17.0336 17.6874C16.2355 18.4855 15.2628 18.8845 14.1154 18.8845ZM0 18.3845V11.1538H7.23071V18.3845H0ZM14.1151 17.3846C14.8473 17.3846 15.4663 17.1318 15.9721 16.6262C16.4779 16.1206 16.7307 15.5017 16.7307 14.7694C16.7307 14.0372 16.478 13.4182 15.9724 12.9124C15.4668 12.4067 14.8479 12.1538 14.1156 12.1538C13.3834 12.1538 12.7644 12.4066 12.2586 12.9122C11.7528 13.4178 11.5 14.0367 11.5 14.7689C11.5 15.5011 11.7528 16.1201 12.2583 16.6259C12.7639 17.1317 13.3829 17.3846 14.1151 17.3846ZM1.49996 16.8846H5.73075V12.6538H1.49996V16.8846ZM6.4538 6.38457H10.7769L8.61536 2.90762L6.4538 6.38457Z" fill="#0066CC"/>
</svg>
