<svg width="19" height="19" viewBox="0 0 19 19" fill="none" xmlns="http://www.w3.org/2000/svg">
<path d="M8.59612 16.8019L3.65382 13.9461C3.36921 13.782 3.14741 13.5628 2.98844 13.2884C2.82947 13.0141 2.74998 12.7128 2.74998 12.3846V6.67304C2.74998 6.34484 2.82947 6.04356 2.98844 5.7692C3.14741 5.49485 3.36921 5.27562 3.65382 5.11152L8.59612 2.25575C8.88074 2.09165 9.18202 2.0096 9.49996 2.0096C9.81791 2.0096 10.1192 2.09165 10.4038 2.25575L15.3461 5.11152C15.6307 5.27562 15.8525 5.49485 16.0115 5.7692C16.1705 6.04356 16.2499 6.34484 16.2499 6.67304V12.3846C16.2499 12.7128 16.1705 13.0141 16.0115 13.2884C15.8525 13.5628 15.6307 13.782 15.3461 13.9461L10.4038 16.8019C10.1192 16.966 9.81791 17.048 9.49996 17.048C9.18202 17.048 8.88074 16.966 8.59612 16.8019ZM8.74998 15.1654V9.94995L4.24995 7.36532V12.3846C4.24995 12.4359 4.26277 12.4839 4.28841 12.5288C4.31405 12.5737 4.35252 12.6122 4.4038 12.6442L8.74998 15.1654ZM10.2499 15.1654L14.5961 12.6442C14.6474 12.6122 14.6859 12.5737 14.7115 12.5288C14.7372 12.4839 14.75 12.4359 14.75 12.3846V7.36532L10.2499 9.94995V15.1654ZM0 4.49996V1.80768C0 1.30896 0.176601 0.883006 0.529803 0.529803C0.883006 0.176601 1.30896 0 1.80768 0H4.49996V1.49996H1.80768C1.71793 1.49996 1.6442 1.52881 1.58651 1.58651C1.52881 1.6442 1.49996 1.71793 1.49996 1.80768V4.49996H0ZM4.49996 18.9999H1.80768C1.30896 18.9999 0.883006 18.8233 0.529803 18.4701C0.176601 18.1169 0 17.691 0 17.1922V14.5H1.49996V17.1922C1.49996 17.282 1.52881 17.3557 1.58651 17.4134C1.6442 17.4711 1.71793 17.5 1.80768 17.5H4.49996V18.9999ZM14.5 18.9999V17.5H17.1922C17.282 17.5 17.3557 17.4711 17.4134 17.4134C17.4711 17.3557 17.5 17.282 17.5 17.1922V14.5H18.9999V17.1922C18.9999 17.691 18.8233 18.1169 18.4701 18.4701C18.1169 18.8233 17.691 18.9999 17.1922 18.9999H14.5ZM17.5 4.49996V1.80768C17.5 1.71793 17.4711 1.6442 17.4134 1.58651C17.3557 1.52881 17.282 1.49996 17.1922 1.49996H14.5V0H17.1922C17.691 0 18.1169 0.176601 18.4701 0.529803C18.8233 0.883006 18.9999 1.30896 18.9999 1.80768V4.49996H17.5ZM9.49996 8.65768L13.9692 6.05381L9.65382 3.56726C9.60254 3.5352 9.55125 3.51918 9.49996 3.51918C9.44868 3.51918 9.39739 3.5352 9.34611 3.56726L5.03069 6.05381L9.49996 8.65768Z" fill="#0066CC"/>
</svg>
