<svg width="19" height="19" viewBox="0 0 19 19" fill="none" xmlns="http://www.w3.org/2000/svg">
<path d="M3.76921 11.2499H5.26918C5.32687 10.2666 5.73008 9.43745 6.4788 8.76245C7.22752 8.08745 8.11791 7.74995 9.14996 7.74995C9.78843 7.74995 10.4285 7.92751 11.0702 8.28265C11.7118 8.63778 12.241 9.12689 12.6577 9.74998H10.7115V11.2499H15.2115V6.74998H13.7115V8.66539C13.1397 7.8782 12.4477 7.27884 11.6355 6.86729C10.8234 6.45575 9.99483 6.24998 9.14996 6.24998C7.68202 6.24998 6.43588 6.73363 5.41152 7.70093C4.38717 8.66823 3.83973 9.85124 3.76921 11.2499ZM9.50164 18.9999C8.18771 18.9999 6.95267 18.7506 5.79653 18.2519C4.64039 17.7533 3.63471 17.0765 2.77948 16.2217C1.92426 15.3668 1.2472 14.3616 0.748323 13.206C0.249441 12.0503 0 10.8156 0 9.50164C0 8.18771 0.24933 6.95267 0.74799 5.79653C1.24665 4.64039 1.9234 3.63471 2.77825 2.77948C3.6331 1.92426 4.63833 1.24721 5.79396 0.748323C6.94958 0.249441 8.18436 0 9.49829 0C10.8122 0 12.0473 0.24933 13.2034 0.74799C14.3595 1.24665 15.3652 1.9234 16.2204 2.77825C17.0757 3.6331 17.7527 4.63833 18.2516 5.79396C18.7505 6.94958 18.9999 8.18436 18.9999 9.49829C18.9999 10.8122 18.7506 12.0473 18.2519 13.2034C17.7533 14.3595 17.0765 15.3652 16.2217 16.2204C15.3668 17.0757 14.3616 17.7527 13.206 18.2516C12.0503 18.7505 10.8156 18.9999 9.50164 18.9999ZM9.49996 17.5C11.7333 17.5 13.625 16.725 15.175 15.175C16.725 13.625 17.5 11.7333 17.5 9.49996C17.5 7.26663 16.725 5.37496 15.175 3.82496C13.625 2.27496 11.7333 1.49996 9.49996 1.49996C7.26663 1.49996 5.37496 2.27496 3.82496 3.82496C2.27496 5.37496 1.49996 7.26663 1.49996 9.49996C1.49996 11.7333 2.27496 13.625 3.82496 15.175C5.37496 16.725 7.26663 17.5 9.49996 17.5Z" fill="#0066CC"/>
</svg>
