<svg width="19" height="20" viewBox="0 0 19 20" fill="none" xmlns="http://www.w3.org/2000/svg">
<path d="M0 7.41342C0 5.93907 0.313137 4.57819 0.93941 3.33076C1.56568 2.08334 2.41087 1.03014 3.47495 0.17117L4.39994 1.33845C3.50892 2.05896 2.80283 2.94229 2.28169 3.98844C1.76054 5.03459 1.49996 6.17625 1.49996 7.41342H0ZM17.2692 7.41342C17.2692 6.17625 17.0086 5.03298 16.4875 3.98363C15.9663 2.93427 15.2602 2.04934 14.3692 1.32883L15.2942 0.17117C16.3583 1.03014 17.2035 2.08334 17.8297 3.33076C18.456 4.57819 18.7691 5.93907 18.7691 7.41342H17.2692ZM1.88461 16.3846V14.8846H3.69229V7.42303C3.69229 6.07817 4.10735 4.88907 4.93748 3.85574C5.7676 2.82241 6.83331 2.16151 8.13459 1.87305V1.24998C8.13459 0.903833 8.25638 0.608966 8.49997 0.365379C8.74355 0.121793 9.03842 0 9.38457 0C9.73072 0 10.0256 0.121793 10.2692 0.365379C10.5128 0.608966 10.6346 0.903833 10.6346 1.24998V1.87305C11.9358 2.16151 13.0015 2.82241 13.8317 3.85574C14.6618 4.88907 15.0769 6.07817 15.0769 7.42303V14.8846H16.8845V16.3846H1.88461ZM9.38457 19.1922C8.88586 19.1922 8.4599 19.0156 8.1067 18.6624C7.75349 18.3092 7.57689 17.8833 7.57689 17.3846H11.1922C11.1922 17.8833 11.0156 18.3092 10.6624 18.6624C10.3092 19.0156 9.88328 19.1922 9.38457 19.1922ZM5.19225 14.8846H13.5769V7.42303C13.5769 6.26534 13.1676 5.27719 12.349 4.4586C11.5304 3.64001 10.5423 3.23071 9.38457 3.23071C8.22687 3.23071 7.23873 3.64001 6.42014 4.4586C5.60154 5.27719 5.19225 6.26534 5.19225 7.42303V14.8846Z" fill="#1D1D1F" fill-opacity="0.4"/>
</svg>
