<svg width="15" height="19" viewBox="0 0 15 19" fill="none" xmlns="http://www.w3.org/2000/svg">
<path d="M7.49996 18.9422C5.33715 18.3525 3.54646 17.0794 2.12787 15.123C0.709292 13.1666 0 10.9794 0 8.5615V2.80768L7.49996 0L14.9999 2.80768V8.5615C14.9999 10.9794 14.2906 13.1666 12.8721 15.123C11.4535 17.0794 9.66277 18.3525 7.49996 18.9422ZM7.49996 17.3615C9.2333 16.8115 10.6666 15.7115 11.8 14.0615C12.9333 12.4115 13.5 10.5782 13.5 8.5615V3.8365L7.49996 1.59612L1.49996 3.8365V8.5615C1.49996 10.5782 2.06663 12.4115 3.19996 14.0615C4.3333 15.7115 5.76663 16.8115 7.49996 17.3615Z" fill="#1D1D1F" fill-opacity="0.2"/>
</svg>
