<svg width="22" height="22" viewBox="0 0 22 22" fill="none" xmlns="http://www.w3.org/2000/svg">
<path d="M12.2345 4.98438C13.2313 4.98438 14.047 4.16875 14.047 3.17188C14.047 2.175 13.2313 1.35938 12.2345 1.35938C11.2376 1.35938 10.422 2.175 10.422 3.17188C10.422 4.16875 11.2376 4.98438 12.2345 4.98438ZM16.5392 8.15625C16.1676 8.15625 15.8595 8.46438 15.8595 8.83594V9.76937C14.7448 9.43406 13.8476 8.70906 13.322 7.79375L12.4157 6.34375C12.0442 5.75469 11.4098 5.4375 10.7482 5.4375C10.0413 5.4375 9.30729 5.89063 9.1351 6.7425L6.57041 19.72C6.4526 20.3 6.89666 20.8438 7.49479 20.8438C7.93885 20.8438 8.31947 20.5356 8.41916 20.1097L9.87822 13.5938L11.7813 15.4062V19.9375C11.7813 20.4359 12.1892 20.8438 12.6876 20.8438C13.186 20.8438 13.5938 20.4359 13.5938 19.9375V14.8263C13.5938 14.3278 13.3945 13.8566 13.032 13.5122L11.6907 12.2344L12.2345 9.51562C13.1407 10.5578 14.4185 11.3372 15.8595 11.6363V20.1641C15.8595 20.5356 16.1676 20.8438 16.5392 20.8438C16.9107 20.8438 17.2188 20.5356 17.2188 20.1641V8.83594C17.2188 8.46438 16.9107 8.15625 16.5392 8.15625ZM6.73354 11.8991L4.81229 11.5275C4.57695 11.4814 4.36945 11.344 4.23526 11.1453C4.10107 10.9465 4.05112 10.7027 4.09635 10.4672L4.7851 6.90562C4.87721 6.43495 5.15211 6.01996 5.54959 5.75158C5.94707 5.48319 6.43473 5.38329 6.90572 5.47375L7.95697 5.68219L6.73354 11.8991Z" fill="black"/>
</svg>
