<svg width="19" height="19" viewBox="0 0 19 19" fill="none" xmlns="http://www.w3.org/2000/svg">
<path fill-rule="evenodd" clip-rule="evenodd" d="M1.73434 9.15717C1.72663 9.29361 1.7459 9.4578 1.78445 9.78772L2.09355 12.4301C2.21464 13.4649 2.7115 14.4192 3.48978 15.1118C4.26806 15.8044 5.27357 16.1871 6.3154 16.1872H9.10119C9.91974 16.1866 10.7208 15.95 11.4082 15.5057C12.0956 15.0613 12.6403 14.4281 12.9769 13.682H14.6458C15.4124 13.682 16.1477 13.3774 16.6898 12.8353C17.2319 12.2932 17.5364 11.558 17.5364 10.7913C17.5364 10.0247 17.2319 9.28946 16.6898 8.74736C16.1477 8.20526 15.4124 7.90072 14.6458 7.90072H12.8891C12.7407 7.81835 12.5797 7.76106 12.4127 7.73113C12.2786 7.70801 12.1121 7.70801 11.7806 7.70801H3.63599C3.30453 7.70801 3.1388 7.70801 3.00467 7.73113C2.66377 7.79181 2.35321 7.96548 2.12304 8.22418C1.89287 8.48287 1.7565 8.81152 1.73588 9.15717M13.6738 9.05697C13.6779 9.09037 13.681 9.12377 13.683 9.15717C13.6907 9.29361 13.6722 9.4578 13.6337 9.78772L13.3246 12.4301L13.3123 12.5257H14.6458C15.1058 12.5257 15.5469 12.343 15.8722 12.0177C16.1974 11.6925 16.3802 11.2513 16.3802 10.7913C16.3802 10.3314 16.1974 9.89021 15.8722 9.56495C15.5469 9.23969 15.1058 9.05697 14.6458 9.05697H13.6738Z" fill="black"/>
<path opacity="0.5" fill-rule="evenodd" clip-rule="evenodd" d="M8.11688 1.13294C8.22514 1.24134 8.28595 1.38828 8.28595 1.54148C8.28595 1.69469 8.22514 1.84163 8.11688 1.95003C8.02104 2.04624 7.96723 2.17651 7.96723 2.31232C7.96723 2.44812 8.02104 2.57839 8.11688 2.67461C8.42962 2.98742 8.60531 3.41165 8.60531 3.85398C8.60531 4.29632 8.42962 4.72054 8.11688 5.03336C8.00728 5.13548 7.86233 5.19107 7.71256 5.18843C7.56278 5.18579 7.41988 5.12511 7.31396 5.01919C7.20804 4.91327 7.14736 4.77037 7.14472 4.62059C7.14208 4.47082 7.19767 4.32587 7.29979 4.21627C7.50021 4.01586 7.50021 3.69211 7.29979 3.49169C6.98705 3.17888 6.81136 2.75465 6.81136 2.31232C6.81136 1.86998 6.98705 1.44576 7.29979 1.13294C7.40819 1.02468 7.55513 0.963867 7.70833 0.963867C7.86154 0.963867 8.00848 1.02468 8.11688 1.13294ZM4.64813 2.28919C4.75639 2.39759 4.8172 2.54453 4.8172 2.69773C4.8172 2.85094 4.75639 2.99788 4.64813 3.10628L4.55871 3.19569C4.46776 3.28632 4.41267 3.4068 4.4036 3.53487C4.39454 3.66295 4.4321 3.78998 4.50938 3.89253C4.75354 4.21766 4.87214 4.61999 4.8434 5.02558C4.81465 5.43116 4.64048 5.81275 4.3529 6.10019L4.26348 6.18961C4.15449 6.29497 4.00849 6.35331 3.8569 6.35207C3.70532 6.35082 3.56029 6.29009 3.45305 6.18295C3.34581 6.07581 3.28494 5.93084 3.28355 5.77926C3.28216 5.62767 3.34037 5.48161 3.44563 5.37252L3.53504 5.28311C3.62599 5.19248 3.68108 5.072 3.69015 4.94393C3.69922 4.81585 3.66165 4.68882 3.58438 4.58627C3.34031 4.26105 3.22184 3.85866 3.25073 3.45308C3.27962 3.04749 3.45393 2.66596 3.74163 2.37861L3.83104 2.28919C3.93944 2.18093 4.08638 2.12012 4.23958 2.12012C4.39279 2.12012 4.53973 2.18093 4.64813 2.28919ZM11.971 2.28919C12.0793 2.39759 12.1401 2.54453 12.1401 2.69773C12.1401 2.85094 12.0793 2.99788 11.971 3.10628L11.8816 3.19569C11.7907 3.28632 11.7356 3.4068 11.7265 3.53487C11.7175 3.66295 11.755 3.78998 11.8323 3.89253C12.0765 4.21766 12.1951 4.61999 12.1663 5.02558C12.1376 5.43116 11.9634 5.81275 11.6758 6.10019L11.5856 6.18961C11.5327 6.24641 11.4689 6.29197 11.398 6.32356C11.327 6.35516 11.2505 6.37215 11.1729 6.37352C11.0952 6.37489 11.0181 6.36061 10.9461 6.33154C10.8742 6.30246 10.8088 6.25918 10.7539 6.20428C10.699 6.14939 10.6557 6.08399 10.6266 6.01201C10.5975 5.94002 10.5833 5.86291 10.5846 5.78529C10.586 5.70766 10.603 5.63111 10.6346 5.56019C10.6662 5.48928 10.7117 5.42545 10.7685 5.37252L10.858 5.28311C10.9489 5.19248 11.004 5.072 11.0131 4.94393C11.0221 4.81585 10.9846 4.68882 10.9073 4.58627C10.6632 4.26105 10.5448 3.85866 10.5736 3.45308C10.6025 3.04749 10.7768 2.66596 11.0645 2.37861L11.154 2.28919C11.2624 2.18093 11.4093 2.12012 11.5625 2.12012C11.7157 2.12012 11.8626 2.18093 11.971 2.28919Z" fill="black"/>
</svg>
