<svg width="19" height="19" viewBox="0 0 19 19" fill="none" xmlns="http://www.w3.org/2000/svg">
<g clip-path="url(#clip0_541_635)">
<path d="M9.25 3.46875C9.70998 3.46875 10.1511 3.28602 10.4764 2.96076C10.8016 2.6355 10.9844 2.19436 10.9844 1.73438C10.9844 1.27439 10.8016 0.833245 10.4764 0.507987C10.1511 0.182728 9.70998 0 9.25 0C8.79002 0 8.34887 0.182728 8.02361 0.507987C7.69835 0.833245 7.51562 1.27439 7.51562 1.73438C7.51562 2.19436 7.69835 2.6355 8.02361 2.96076C8.34887 3.28602 8.79002 3.46875 9.25 3.46875ZM6.9375 7.80469V17.6328C6.9375 17.8628 7.02886 18.0834 7.19149 18.246C7.35412 18.4086 7.5747 18.5 7.80469 18.5C8.03468 18.5 8.25525 18.4086 8.41788 18.246C8.58051 18.0834 8.67188 17.8628 8.67188 17.6328V12.1406C8.67188 11.9873 8.73278 11.8402 8.8412 11.7318C8.94962 11.6234 9.09667 11.5625 9.25 11.5625C9.40333 11.5625 9.55038 11.6234 9.6588 11.7318C9.76722 11.8402 9.82812 11.9873 9.82812 12.1406V17.6328C9.82812 17.8628 9.91949 18.0834 10.0821 18.246C10.2447 18.4086 10.4653 18.5 10.6953 18.5C10.9253 18.5 11.1459 18.4086 11.3085 18.246C11.4711 18.0834 11.5625 17.8628 11.5625 17.6328V7.80469C11.5625 7.72802 11.593 7.6545 11.6472 7.60029C11.7014 7.54608 11.7749 7.51562 11.8516 7.51562C11.9282 7.51562 12.0018 7.54608 12.056 7.60029C12.1102 7.6545 12.1406 7.72802 12.1406 7.80469V10.6953C12.1406 10.9253 12.232 11.1459 12.3946 11.3085C12.5572 11.4711 12.7778 11.5625 13.0078 11.5625C13.2378 11.5625 13.4584 11.4711 13.621 11.3085C13.7836 11.1459 13.875 10.9253 13.875 10.6953V7.51562C13.875 6.59566 13.5095 5.71337 12.859 5.06285C12.2085 4.41233 11.3262 4.04688 10.4062 4.04688H8.09375C7.17378 4.04688 6.29149 4.41233 5.64097 5.06285C4.99046 5.71337 4.625 6.59566 4.625 7.51562V10.6953C4.625 10.9253 4.71636 11.1459 4.87899 11.3085C5.04162 11.4711 5.2622 11.5625 5.49219 11.5625C5.72218 11.5625 5.94275 11.4711 6.10538 11.3085C6.26801 11.1459 6.35937 10.9253 6.35938 10.6953V7.80469C6.35938 7.72802 6.38983 7.6545 6.44404 7.60029C6.49825 7.54608 6.57177 7.51562 6.64844 7.51562C6.7251 7.51562 6.79863 7.54608 6.85284 7.60029C6.90705 7.6545 6.9375 7.72802 6.9375 7.80469Z" fill="black"/>
</g>
<defs>
<clipPath id="clip0_541_635">
<rect width="18.5" height="18.5" fill="white"/>
</clipPath>
</defs>
</svg>
