<svg width="24" height="24" viewBox="0 0 24 24" fill="none" xmlns="http://www.w3.org/2000/svg">
<path d="M10.904 7.00013H13.096V4.80813H10.904V7.00013ZM8.884 11.8281C7.88267 11.4568 6.92133 10.9848 6 10.4121V8.61513C6 8.17113 6.15833 7.79113 6.475 7.47513C6.79167 7.15913 7.17167 7.0008 7.615 7.00013H9.904V4.57713C9.904 4.37046 9.98067 4.19046 10.134 4.03713C10.2873 3.8838 10.467 3.80713 10.673 3.80713H13.327C13.5337 3.80713 13.7137 3.8838 13.867 4.03713C14.0203 4.19046 14.097 4.37046 14.097 4.57713V7.00013H16.385C16.829 7.00013 17.209 7.15846 17.525 7.47513C17.841 7.7918 17.9993 8.1718 18 8.61513V10.4121C17.08 10.9855 16.1187 11.4575 15.116 11.8281C14.1133 12.1995 13.0747 12.3851 12 12.3851C10.9253 12.3851 9.88667 12.1995 8.884 11.8281ZM7.616 21.0001V20.0001C7.17133 20.0001 6.791 19.8418 6.475 19.5251C6.159 19.2085 6.00067 18.8288 6 18.3861V11.5861C6.85667 12.0755 7.74233 12.4788 8.657 12.7961C9.57167 13.1121 10.5193 13.3048 11.5 13.3741V14.3851H12.5V13.3741C13.4807 13.3048 14.4283 13.1118 15.343 12.7951C16.2583 12.4785 17.144 12.0751 18 11.5851V18.3851C18 18.8298 17.8417 19.2101 17.525 19.5261C17.2083 19.8421 16.8283 20.0005 16.385 20.0011V21.0011H15.385V20.0011H8.615V21.0011L7.616 21.0001Z" fill="black"/>
</svg>
