<svg width="23" height="11" viewBox="0 0 23 11" fill="none" xmlns="http://www.w3.org/2000/svg">
<path d="M0 10.4807V9.26145C0 8.59607 0.347434 8.0496 1.0423 7.62204C1.73717 7.19448 2.64294 6.98069 3.7596 6.98069C3.94421 6.98069 4.13011 6.98646 4.31729 6.998C4.50446 7.00954 4.69292 7.03198 4.88267 7.06531C4.6878 7.37685 4.54325 7.70024 4.44902 8.03549C4.35479 8.37075 4.30768 8.71465 4.30768 9.06721V10.4807H0ZM6 10.4807V9.10568C6 8.63751 6.13141 8.20957 6.39423 7.82187C6.65705 7.43416 7.03589 7.09608 7.53076 6.80762C8.02563 6.51917 8.61024 6.30282 9.28459 6.15859C9.95895 6.01436 10.6961 5.94225 11.4961 5.94225C12.3115 5.94225 13.0564 6.01436 13.7307 6.15859C14.4051 6.30282 14.9897 6.51917 15.4846 6.80762C15.9794 7.09608 16.3557 7.43416 16.6134 7.82187C16.8711 8.20957 16.9999 8.63751 16.9999 9.10568V10.4807H6ZM18.6922 10.4807V9.07009C18.6922 8.69394 18.6477 8.33949 18.5586 8.00674C18.4695 7.67399 18.3358 7.36018 18.1576 7.06531C18.3538 7.03198 18.5413 7.00954 18.7201 6.998C18.899 6.98646 19.0756 6.98069 19.2499 6.98069C20.3666 6.98069 21.2708 7.19191 21.9624 7.61435C22.6541 8.03678 22.9999 8.58582 22.9999 9.26145V10.4807H18.6922ZM7.57688 8.98069H15.4384V8.87492C15.3359 8.47107 14.9102 8.13132 14.1615 7.85568C13.4128 7.58003 12.5256 7.44221 11.5 7.44221C10.4743 7.44221 9.58713 7.58003 8.83841 7.85568C8.0897 8.13132 7.66919 8.47107 7.57688 8.87492V8.98069ZM3.75705 6.00954C3.28568 6.00954 2.88301 5.84196 2.54904 5.50678C2.21507 5.17161 2.04808 4.76869 2.04808 4.29803C2.04808 3.82111 2.21567 3.41823 2.55084 3.08939C2.88601 2.76055 3.28893 2.59612 3.7596 2.59612C4.23651 2.59612 4.641 2.76055 4.97304 3.08939C5.30509 3.41823 5.47112 3.82207 5.47112 4.3009C5.47112 4.76564 5.30685 5.1666 4.97832 5.50378C4.64979 5.84095 4.2427 6.00954 3.75705 6.00954ZM19.2499 6.00954C18.7833 6.00954 18.3814 5.84095 18.0442 5.50378C17.707 5.1666 17.5384 4.76564 17.5384 4.3009C17.5384 3.82207 17.707 3.41823 18.0442 3.08939C18.3814 2.76055 18.7839 2.59612 19.2518 2.59612C19.7339 2.59612 20.1394 2.76055 20.4682 3.08939C20.797 3.41823 20.9615 3.82111 20.9615 4.29803C20.9615 4.76869 20.7974 5.17161 20.4694 5.50678C20.1414 5.84196 19.7349 6.00954 19.2499 6.00954ZM11.5034 5.19225C10.7832 5.19225 10.1699 4.93985 9.66345 4.43505C9.15704 3.93024 8.90384 3.31727 8.90384 2.59612C8.90384 1.86056 9.15624 1.24398 9.66104 0.746387C10.1658 0.248796 10.7788 0 11.5 0C12.2355 0 12.8521 0.24847 13.3497 0.74541C13.8473 1.24235 14.0961 1.85812 14.0961 2.59273C14.0961 3.31293 13.8476 3.92624 13.3507 4.43264C12.8537 4.93905 12.238 5.19225 11.5034 5.19225ZM11.5048 3.69229C11.8105 3.69229 12.0689 3.58523 12.2798 3.37113C12.4907 3.15702 12.5961 2.89709 12.5961 2.59132C12.5961 2.28555 12.4911 2.02721 12.281 1.81631C12.0709 1.60541 11.8105 1.49996 11.5 1.49996C11.1974 1.49996 10.9391 1.60501 10.725 1.81511C10.5109 2.02521 10.4038 2.28554 10.4038 2.59612C10.4038 2.89869 10.5109 3.15702 10.725 3.37113C10.9391 3.58523 11.199 3.69229 11.5048 3.69229Z" fill="#1D1D1F"/>
</svg>
