<svg width="19" height="21" viewBox="0 0 19 21" fill="none" xmlns="http://www.w3.org/2000/svg">
<path d="M17.5692 15.525L16.4442 14.4C16.6275 13.9564 16.7634 13.5138 16.8519 13.0721C16.9403 12.6304 16.9846 12.1897 16.9846 11.75C16.9846 9.81665 16.3012 8.16665 14.9346 6.79998C13.5679 5.43331 11.9179 4.74998 9.98457 4.74998C9.58457 4.74998 9.15316 4.79165 8.69034 4.87498C8.22752 4.95832 7.77047 5.09165 7.31919 5.27498L6.19421 4.15001C6.76985 3.85514 7.38138 3.63142 8.02882 3.47886C8.67625 3.3263 9.32817 3.25002 9.98457 3.25002C10.9589 3.25002 11.9108 3.41829 12.8403 3.75483C13.7698 4.09137 14.6403 4.57951 15.4519 5.21925L16.698 3.97311L17.7518 5.02693L16.5057 6.27307C17.1454 7.08461 17.6352 7.95672 17.9749 8.88941C18.3147 9.8221 18.4845 10.7756 18.4845 11.75C18.4845 12.3859 18.4083 13.0224 18.2557 13.6596C18.1031 14.2968 17.8743 14.9185 17.5692 15.525V15.525M10.7346 8.69035V6.9423H9.23459V7.19038L10.7346 8.69035V8.69035M17.8615 20.7346L15.4038 18.2769C14.6487 18.9051 13.8022 19.391 12.8644 19.7346C11.9266 20.0781 10.9666 20.2499 9.98457 20.2499C8.81534 20.2499 7.71535 20.0269 6.68458 19.5807C5.65382 19.1346 4.75254 18.5256 3.98075 17.7538C3.20896 16.982 2.59999 16.0807 2.15383 15.05C1.70768 14.0192 1.48461 12.9192 1.48461 11.75C1.48461 10.7372 1.6532 9.76665 1.99038 8.83844C2.32756 7.91024 2.81667 7.07434 3.4577 6.33075L0 2.87305L1.05382 1.81923L18.9153 19.6807L17.8615 20.7346V20.7346M9.98457 18.75C10.7615 18.75 11.5202 18.6144 12.2605 18.3432C13.0009 18.0721 13.682 17.6884 14.3038 17.1923L4.51152 7.39995C4.01536 8.00893 3.63683 8.68201 3.37592 9.4192C3.11502 10.1564 2.98457 10.9333 2.98457 11.75C2.98457 13.6833 3.6679 15.3333 5.03457 16.7C6.40124 18.0666 8.05124 18.75 9.98457 18.75V18.75M7.17689 1.49996V0H12.7922V1.49996H7.17689V1.49996M9.41537 12.2884V12.2884V12.2884V12.2884V12.2884V12.2884V12.2884V12.2884V12.2884M11.8942 9.82498V9.82498V9.82498V9.82498V9.82498V9.82498V9.82498V9.82498V9.82498" fill="#0066CC"/>
</svg>
