<svg width="33" height="33" viewBox="0 0 33 33" fill="none" xmlns="http://www.w3.org/2000/svg">
<rect width="32.9999" height="32.9999" rx="12" fill="#FEF2F2"/>
<path d="M16.5033 21.2115C16.7331 21.2115 16.9246 21.1333 17.0778 20.9769C17.231 20.8205 17.3076 20.6294 17.3076 20.4038C17.3076 20.1782 17.2306 19.9871 17.0764 19.8307C16.9222 19.6743 16.7312 19.5961 16.5033 19.5961C16.2755 19.5961 16.0833 19.6743 15.9269 19.8307C15.7705 19.9871 15.6923 20.1782 15.6923 20.4038C15.6923 20.6294 15.77 20.8205 15.9255 20.9769C16.0809 21.1333 16.2735 21.2115 16.5033 21.2115ZM15.75 17.7307H17.2499V11.6923H15.75V17.7307ZM12.9615 24.9999L8 20.0429V12.9615L12.957 8H20.0384L24.9999 12.957V20.0384L20.0429 24.9999H12.9615ZM13.6 23.5H19.4L23.5 19.4V13.6L19.4 9.49996H13.6L9.49996 13.6V19.4L13.6 23.5Z" fill="#EF4444"/>
</svg>
