<svg width="17" height="18" viewBox="0 0 17 18" fill="none" xmlns="http://www.w3.org/2000/svg">
<path d="M13.6698 5.673L12.7884 3.7179L10.8333 2.8365L12.7884 1.9551L13.6698 0L14.5512 1.9551L16.5063 2.8365L14.5512 3.7179L13.6698 5.673ZM13.6698 17.0191L12.7884 15.064L10.8333 14.1826L12.7884 13.3012L13.6698 11.3461L14.5512 13.3012L16.5063 14.1826L14.5512 15.064L13.6698 17.0191ZM5.65698 14.1665L3.89418 10.2724L0 8.50957L3.89418 6.74677L5.65698 2.85259L7.41977 6.74677L11.314 8.50957L7.41977 10.2724L5.65698 14.1665ZM5.65698 11.1346L6.49031 9.3429L8.28198 8.50957L6.49031 7.67623L5.65698 5.88457L4.82364 7.67623L3.03198 8.50957L4.82364 9.3429L5.65698 11.1346Z" fill="#0066CC"/>
</svg>
