<svg width="18" height="17" viewBox="0 0 18 17" fill="none" xmlns="http://www.w3.org/2000/svg">
<path d="M5.94869 16.4422L4.46152 13.9358L1.63781 13.3172L1.91345 10.4102L0 8.22112L1.91345 6.03202L1.63781 3.12498L4.46152 2.5064L5.94869 0L8.60573 1.1282L11.2628 0L12.7499 2.5064L15.5736 3.12498L15.298 6.03202L17.2115 8.22112L15.298 10.4102L15.5736 13.3172L12.7499 13.9358L11.2628 16.4422L8.60573 15.314L5.94869 16.4422ZM6.48073 14.8461L8.60573 13.9455L10.7564 14.8461L11.9391 12.8461L14.2307 12.3205L14.0224 9.97112L15.5641 8.22112L14.0224 6.44548L14.2307 4.09612L11.9391 3.59612L10.7307 1.59612L8.60573 2.49675L6.45509 1.59612L5.27239 3.59612L2.98073 4.09612L3.18906 6.44548L1.64739 8.22112L3.18906 9.97112L2.98073 12.3461L5.27239 12.8461L6.48073 14.8461ZM7.73073 10.891L12.1506 6.47112L11.2724 5.56729L7.73073 9.10896L5.93906 7.34293L5.06088 8.22112L7.73073 10.891Z" fill="#0066CC"/>
</svg>
