<svg width="13" height="13" viewBox="0 0 13 13" fill="none" xmlns="http://www.w3.org/2000/svg">
<path d="M0.0641073 12.7884V11.5385H2.50002L1.89423 10.9583C1.2094 10.3248 0.722489 9.61562 0.433493 8.8309C0.144498 8.04618 0 7.25318 0 6.4519C0 5.01174 0.421739 3.72035 1.26522 2.57772C2.10869 1.4351 3.21472 0.650645 4.5833 0.22436V1.54164C3.57796 1.9348 2.77107 2.57877 2.16263 3.47353C1.55419 4.3683 1.24997 5.36109 1.24997 6.4519C1.24997 7.10362 1.37337 7.73663 1.62016 8.35095C1.86696 8.96527 2.25104 9.53311 2.77241 10.0545L3.30128 10.5833V8.30128H4.55125V12.7884H0.0641073ZM8.33333 12.5641V11.2468C9.33868 10.8536 10.1456 10.2097 10.754 9.31489C11.3624 8.42012 11.6667 7.42733 11.6667 6.33652C11.6667 5.68481 11.5433 5.05179 11.2965 4.43747C11.0497 3.82316 10.6656 3.25531 10.1442 2.73394L9.61536 2.20507V4.48714H8.36539V0H12.8525V1.24997H10.4166L11.0224 1.83012C11.6816 2.48931 12.1621 3.20485 12.4639 3.97675C12.7657 4.74865 12.9166 5.53524 12.9166 6.33652C12.9166 7.77668 12.4949 9.06807 11.6514 10.2107C10.8079 11.3533 9.70191 12.1378 8.33333 12.5641Z" fill="#0066CC"/>
</svg>
