<svg width="15" height="15" viewBox="0 0 15 15" fill="none" xmlns="http://www.w3.org/2000/svg">
<path d="M1.24997 12.9166H2.30124L10.8317 4.38616L9.78045 3.33489L1.24997 11.8654V12.9166ZM0 14.1666V11.3461L10.992 0.358966C11.118 0.244513 11.2571 0.156072 11.4094 0.0936432C11.5617 0.0312144 11.7213 0 11.8884 0C12.0555 0 12.2174 0.0296466 12.374 0.0889397C12.5306 0.148233 12.6693 0.242515 12.79 0.371785L13.8076 1.40222C13.9369 1.52295 14.0291 1.66186 14.0841 1.81896C14.1391 1.97606 14.1666 2.13316 14.1666 2.29026C14.1666 2.45783 14.138 2.61775 14.0808 2.77002C14.0235 2.92229 13.9325 3.06143 13.8076 3.18744L2.82046 14.1666H0ZM12.9246 2.28842L11.8782 1.24196L12.9246 2.28842ZM10.2969 3.86974L9.78045 3.33489L10.8317 4.38616L10.2969 3.86974Z" fill="#86868B"/>
</svg>
