<svg width="17" height="15" viewBox="0 0 17 15" fill="none" xmlns="http://www.w3.org/2000/svg">
<path d="M0 14.5832L8.44546 0L16.8909 14.5832H0ZM2.15379 13.3333H14.7371L8.44546 2.49994L2.15379 13.3333ZM8.44546 12.3397C8.63349 12.3397 8.79268 12.2745 8.92302 12.1442C9.05336 12.0138 9.11853 11.8546 9.11853 11.6666C9.11853 11.4786 9.05336 11.3194 8.92302 11.189C8.79268 11.0587 8.63349 10.9935 8.44546 10.9935C8.25743 10.9935 8.09824 11.0587 7.9679 11.189C7.83756 11.3194 7.77239 11.4786 7.77239 11.6666C7.77239 11.8546 7.83756 12.0138 7.9679 12.1442C8.09824 12.2745 8.25743 12.3397 8.44546 12.3397ZM7.82048 10.1602H9.07045V5.99354H7.82048V10.1602Z" fill="#F59E0B"/>
</svg>
