<svg width="15" height="19" viewBox="0 0 15 19" fill="none" xmlns="http://www.w3.org/2000/svg">
<path d="M7.49996 18.9422C5.33715 18.3525 3.54646 17.0794 2.12787 15.123C0.709292 13.1666 0 10.9794 0 8.5615V2.80768L7.49996 0L14.9999 2.80768V8.5615C14.9999 10.9794 14.2906 13.1666 12.8721 15.123C11.4535 17.0794 9.66277 18.3525 7.49996 18.9422ZM7.49996 17.3615C9.11663 16.8615 10.4666 15.874 11.55 14.399C12.6333 12.924 13.2666 11.2782 13.45 9.4615H7.49996V1.59612L1.49996 3.8365V8.5615C1.49996 8.73201 1.49996 8.87881 1.49996 9.00188C1.49996 9.12496 1.51663 9.27817 1.54996 9.4615H7.49996V17.3615Z" fill="#1D1D1F"/>
</svg>
