<svg width="15" height="23" viewBox="0 0 15 23" fill="none" xmlns="http://www.w3.org/2000/svg">
<path d="M7.40959 20.8827C8.65959 19.6993 9.63876 18.5618 10.3471 17.4702C11.0554 16.3785 11.4096 15.4577 11.4096 14.7077C11.4096 13.5577 11.0221 12.5785 10.2471 11.7702C9.47209 10.9618 8.52626 10.5577 7.40959 10.5577C6.29292 10.5577 5.34709 10.9618 4.57209 11.7702C3.79709 12.5785 3.40959 13.5577 3.40959 14.7077C3.40959 15.4577 3.76376 16.3785 4.47209 17.4702C5.18042 18.5618 6.15959 19.6993 7.40959 20.8827ZM7.40959 22.8941C5.57242 21.2929 4.19647 19.8118 3.28173 18.4509C2.36699 17.09 1.90963 15.8423 1.90963 14.7077C1.90963 13.1487 2.44071 11.8173 3.50288 10.7135C4.56506 9.60962 5.86729 9.0577 7.40959 9.0577C8.95189 9.0577 10.2541 9.60962 11.3163 10.7135C12.3785 11.8173 12.9096 13.1487 12.9096 14.7077C12.9096 15.8807 12.4442 17.1381 11.5134 18.4798C10.5826 19.8214 9.2147 21.2929 7.40959 22.8941ZM7.40959 15.8653C7.77497 15.8653 8.08426 15.7387 8.33746 15.4855C8.59067 15.2323 8.71727 14.923 8.71727 14.5577C8.71727 14.1923 8.59067 13.883 8.33746 13.6298C8.08426 13.3766 7.77497 13.25 7.40959 13.25C7.04421 13.25 6.73492 13.3766 6.48171 13.6298C6.22851 13.883 6.10191 14.1923 6.10191 14.5577C6.10191 14.923 6.22851 15.2323 6.48171 15.4855C6.73492 15.7387 7.04421 15.8653 7.40959 15.8653ZM3.8692 6.8538L2.825 5.8096C3.4532 5.22627 4.16025 4.77884 4.94614 4.4673C5.73204 4.15577 6.55318 4 7.40959 4C8.26599 4 9.08714 4.15577 9.87303 4.4673C10.6589 4.77884 11.366 5.22627 11.9942 5.8096L10.95 6.8538C10.4602 6.40252 9.91119 6.06406 9.30286 5.83842C8.69452 5.61278 8.06343 5.49996 7.40959 5.49996C6.75574 5.49996 6.12465 5.61278 5.51632 5.83842C4.90799 6.06406 4.35895 6.40252 3.8692 6.8538ZM1.05959 4.0288L0 2.97498C1.01154 2.00832 2.15352 1.27083 3.42595 0.762495C4.69838 0.254165 6.02626 0 7.40959 0C8.79933 0 10.1304 0.254165 11.4028 0.762495C12.6753 1.27083 13.8173 2.01153 14.8288 2.9846L13.775 4.0538C12.9122 3.22945 11.9339 2.59772 10.8404 2.15862C9.74677 1.71951 8.60318 1.49996 7.40959 1.49996C6.22241 1.49996 5.08299 1.71535 3.99132 2.14612C2.89965 2.57688 1.92241 3.20445 1.05959 4.0288Z" fill="#1D1D1F"/>
</svg>
