<svg width="20" height="14" viewBox="0 0 20 14" fill="none" xmlns="http://www.w3.org/2000/svg">
<path d="M6.69115 12.5827C5.07114 12.7014 3.65152 12.2387 2.43229 11.1949C1.21307 10.151 0.544378 8.82224 0.426224 7.20862C0.307602 5.58861 0.775257 4.17183 1.82919 2.9583C2.88312 1.74477 4.22009 1.07869 5.84011 0.960067L14.8065 0.303525C15.9572 0.219263 16.9646 0.54721 17.8287 1.28736C18.6927 2.02752 19.1669 2.97297 19.2511 4.12373C19.3354 5.27449 19.004 6.27893 18.257 7.13705C17.51 7.99517 16.5611 8.46636 15.4103 8.55062L6.92347 9.17206C6.24836 9.22149 5.65477 9.02811 5.14271 8.5919C4.63064 8.1557 4.34989 7.60005 4.30046 6.92494C4.25103 6.24983 4.44601 5.65613 4.88541 5.14383C5.32481 4.63153 5.88526 4.35043 6.56676 4.30053L15.3221 3.65943L15.4317 5.15539L6.6763 5.79649C6.40906 5.81605 6.19059 5.92236 6.0209 6.1154C5.85121 6.30843 5.77615 6.53857 5.79572 6.80581C5.81528 7.07305 5.92307 7.2898 6.11907 7.45606C6.31507 7.62232 6.54669 7.69567 6.81393 7.6761L15.3104 7.05396C16.0461 6.98981 16.651 6.68777 17.125 6.14787C17.5991 5.60796 17.8091 4.96976 17.7552 4.23327C17.7012 3.49678 17.3987 2.89354 16.8475 2.42356C16.2963 1.95358 15.6525 1.74556 14.916 1.79948L5.94964 2.45603C4.74315 2.53408 3.74821 3.02601 2.96482 3.93179C2.18144 4.83757 1.83389 5.89333 1.92218 7.09908C2.00925 8.28821 2.50578 9.26706 3.41177 10.0356C4.31775 10.8042 5.37437 11.1546 6.58161 11.0868L15.8165 10.4106L15.926 11.9065L6.69115 12.5827Z" fill="#0066CC"/>
</svg>
