<svg width="37" height="36" viewBox="0 0 37 36" fill="none" xmlns="http://www.w3.org/2000/svg">
<rect width="36.6537" height="35.7307" rx="12" fill="#F0FDF4"/>
<path d="M15.1384 27.7307L13.3538 24.723L9.96537 23.9807L10.2961 20.4922L8 17.8653L10.2961 15.2384L9.96537 11.75L13.3538 11.0077L15.1384 8L18.3269 9.35384L21.5153 8L23.2999 11.0077L26.6884 11.75L26.3576 15.2384L28.6537 17.8653L26.3576 20.4922L26.6884 23.9807L23.2999 24.723L21.5153 27.7307L18.3269 26.3768L15.1384 27.7307ZM15.7769 25.8153L18.3269 24.7346L20.9076 25.8153L22.3269 23.4153L25.0769 22.7846L24.8269 19.9653L26.6769 17.8653L24.8269 15.7346L25.0769 12.9153L22.3269 12.3153L20.8769 9.91534L18.3269 10.9961L15.7461 9.91534L14.3269 12.3153L11.5769 12.9153L11.8269 15.7346L9.97687 17.8653L11.8269 19.9653L11.5769 22.8153L14.3269 23.4153L15.7769 25.8153ZM17.2769 21.0692L22.5807 15.7653L21.5269 14.6807L17.2769 18.9307L15.1269 16.8115L14.0731 17.8653L17.2769 21.0692Z" fill="#16A34A"/>
</svg>
