<svg width="15" height="19" viewBox="0 0 15 19" fill="none" xmlns="http://www.w3.org/2000/svg">
<path d="M8.02496 13.2115C8.58137 13.2115 9.12688 13.1022 9.66149 12.8836C10.1961 12.665 10.666 12.3371 11.0711 11.9C11.1749 11.7859 11.2031 11.6647 11.1557 11.5365C11.1083 11.4083 11.0076 11.3243 10.8538 11.2846C10.2269 11.1397 9.6477 10.8798 9.11629 10.5048C8.58488 10.1298 8.14738 9.64035 7.80379 9.03651C7.47687 8.466 7.26822 7.85446 7.17783 7.2019C7.08744 6.54933 7.15892 5.916 7.39225 5.3019C7.4525 5.14806 7.43007 5.01729 7.32494 4.9096C7.21981 4.80191 7.09161 4.76473 6.94033 4.79806C5.94419 5.05319 5.15926 5.57563 4.58555 6.36537C4.01184 7.1551 3.72498 8.02048 3.72498 8.9615C3.72498 10.141 4.14517 11.1442 4.98555 11.9711C5.82593 12.798 6.83907 13.2115 8.02496 13.2115ZM7.49996 18.9422C5.33715 18.3525 3.54646 17.0794 2.12787 15.123C0.709292 13.1666 0 10.9794 0 8.5615V2.80768L7.49996 0L14.9999 2.80768V8.5615C14.9999 10.9794 14.2906 13.1666 12.8721 15.123C11.4535 17.0794 9.66277 18.3525 7.49996 18.9422ZM7.49996 17.3615C9.2333 16.8115 10.6666 15.7115 11.8 14.0615C12.9333 12.4115 13.5 10.5782 13.5 8.5615V3.8365L7.49996 1.59612L1.49996 3.8365V8.5615C1.49996 10.5782 2.06663 12.4115 3.19996 14.0615C4.3333 15.7115 5.76663 16.8115 7.49996 17.3615Z" fill="#1D1D1F"/>
</svg>
