<svg width="20" height="16" viewBox="0 0 20 16" fill="none" xmlns="http://www.w3.org/2000/svg">
<path d="M8.0577 15.0807V9.45986L9.43846 5.51537C9.50257 5.38333 9.58974 5.27404 9.7 5.1875C9.81025 5.10096 9.9564 5.0577 10.1384 5.0577H17.3615C17.5341 5.0577 17.6821 5.10096 17.8054 5.1875C17.9287 5.27404 18.0141 5.38333 18.0615 5.51537L19.4423 9.45986V15.0807C19.4423 15.2315 19.3909 15.3583 19.2881 15.4611C19.1852 15.564 19.0584 15.6154 18.9077 15.6154H18.4769C18.3261 15.6154 18.1993 15.564 18.0965 15.4611C17.9937 15.3583 17.9423 15.2315 17.9423 15.0807V14.0192H9.55766V15.0807C9.55766 15.2315 9.50626 15.3583 9.40345 15.4611C9.30064 15.564 9.17384 15.6154 9.02305 15.6154H8.5923C8.44152 15.6154 8.31472 15.564 8.21191 15.4611C8.1091 15.3583 8.0577 15.2315 8.0577 15.0807ZM9.67305 8.48077H17.8269L17.05 6.24998H10.45L9.67305 8.48077ZM9.24998 9.67305V12.8269V9.67305ZM10.7884 12.1538C11.0554 12.1538 11.2792 12.0628 11.4598 11.8807C11.6404 11.6987 11.7307 11.4756 11.7307 11.2115C11.7307 10.9474 11.6404 10.7243 11.4598 10.5423C11.2792 10.3602 11.0554 10.2692 10.7884 10.2692C10.5215 10.2692 10.2977 10.3602 10.1171 10.5423C9.93645 10.7243 9.84614 10.9474 9.84614 11.2115C9.84614 11.4756 9.93645 11.6987 10.1171 11.8807C10.2977 12.0628 10.5215 12.1538 10.7884 12.1538ZM16.7115 12.1538C16.9785 12.1538 17.2023 12.0628 17.3829 11.8807C17.5635 11.6987 17.6538 11.4756 17.6538 11.2115C17.6538 10.9474 17.5635 10.7243 17.3829 10.5423C17.2023 10.3602 16.9785 10.2692 16.7115 10.2692C16.4445 10.2692 16.2207 10.3602 16.0401 10.5423C15.8595 10.7243 15.7692 10.9474 15.7692 11.2115C15.7692 11.4756 15.8595 11.6987 16.0401 11.8807C16.2207 12.0628 16.4445 12.1538 16.7115 12.1538ZM2 15.5V14.8461L3.34618 13.5C2.46156 13.5 1.68271 13.2516 1.00963 12.7548C0.336542 12.258 0 11.5897 0 10.75V2.49996C0 1.61152 0.494872 0.972745 1.48462 0.583647C2.47436 0.194549 4.06282 0 6.24998 0C8.49868 0 10.1025 0.189421 11.0615 0.568263C12.0205 0.947105 12.5 1.59101 12.5 2.49996V3.67305H11V2.49996H1.49996V9H6.67305V15.5H2ZM2.74998 11.6923C3.01408 11.6923 3.23716 11.602 3.41921 11.4214C3.60126 11.2408 3.69229 11.017 3.69229 10.75C3.69229 10.483 3.60126 10.2592 3.41921 10.0786C3.23716 9.89798 3.01408 9.80768 2.74998 9.80768C2.48588 9.80768 2.2628 9.89798 2.08075 10.0786C1.8987 10.2592 1.80768 10.483 1.80768 10.75C1.80768 11.017 1.8987 11.2408 2.08075 11.4214C2.2628 11.602 2.48588 11.6923 2.74998 11.6923ZM9.24998 12.8269H18.25V9.67305H9.24998V12.8269Z" fill="#1D1D1F"/>
</svg>
