<svg width="18" height="19" viewBox="0 0 18 19" fill="none" xmlns="http://www.w3.org/2000/svg">
<path d="M3 18.9999V14.9692C2.05 14.1025 1.3125 13.1092 0.7875 11.9894C0.2625 10.8695 0 9.70316 0 8.49035C0 6.13138 0.82692 4.12658 2.48076 2.47595C4.1346 0.825317 6.141 0 8.49996 0C10.4423 0 12.1791 0.580446 13.7105 1.74134C15.2419 2.90223 16.2365 4.40832 16.6942 6.25959L17.8595 10.8749C17.9365 11.1595 17.8845 11.4182 17.7038 11.6509C17.523 11.8836 17.282 11.9999 16.9807 11.9999H14.9999V15.1922C14.9999 15.691 14.8233 16.1169 14.4701 16.4701C14.1169 16.8233 13.691 16.9999 13.1922 16.9999H10.9999V18.9999H9.49996V15.5H13.1922C13.282 15.5 13.3557 15.4711 13.4134 15.4134C13.4711 15.3557 13.5 15.282 13.5 15.1922V10.5H16.2L15.25 6.62496C14.8666 5.10189 14.0468 3.86695 12.7903 2.92016C11.5339 1.97336 10.1038 1.49996 8.49996 1.49996C6.56663 1.49996 4.91663 2.17657 3.54996 3.52977C2.1833 4.88298 1.49996 6.52625 1.49996 8.45958C1.49996 9.45958 1.70413 10.408 2.11246 11.3048C2.5208 12.2016 3.09996 13 3.84996 13.7L4.49996 14.3V18.9999H3ZM7.72113 12.2884H9.27879L9.39033 11.2019C9.58777 11.1519 9.77271 11.0791 9.94515 10.9836C10.1176 10.8881 10.2647 10.7698 10.3865 10.6288L11.3634 11.0807L12.1422 9.75574L11.2769 9.11152C11.3487 8.90767 11.3846 8.70382 11.3846 8.49996C11.3846 8.29611 11.3487 8.09226 11.2769 7.88841L12.1422 7.24419L11.3634 5.91921L10.3865 6.37113C10.2647 6.2301 10.1176 6.11183 9.94515 6.01632C9.77271 5.9208 9.58777 5.84804 9.39033 5.79804L9.27879 4.71152H7.72113L7.6096 5.79804C7.41216 5.84804 7.22722 5.9208 7.05478 6.01632C6.88234 6.11183 6.73522 6.2301 6.61342 6.37113L5.63651 5.91921L4.85768 7.24419L5.72305 7.88841C5.65126 8.09226 5.61536 8.29611 5.61536 8.49996C5.61536 8.70382 5.65126 8.90767 5.72305 9.11152L4.85768 9.75574L5.63651 11.0807L6.61342 10.6288C6.73522 10.7698 6.88234 10.8881 7.05478 10.9836C7.22722 11.0791 7.41216 11.1519 7.6096 11.2019L7.72113 12.2884ZM8.49996 10.1827C8.03201 10.1827 7.63457 10.0192 7.30765 9.69228C6.98072 9.36536 6.81726 8.96792 6.81726 8.49996C6.81726 8.03201 6.98072 7.63457 7.30765 7.30765C7.63457 6.98072 8.03201 6.81726 8.49996 6.81726C8.96792 6.81726 9.36536 6.98072 9.69228 7.30765C10.0192 7.63457 10.1827 8.03201 10.1827 8.49996C10.1827 8.96792 10.0192 9.36536 9.69228 9.69228C9.36536 10.0192 8.96792 10.1827 8.49996 10.1827Z" fill="#1D1D1F"/>
</svg>
